<?xml version="1.0" encoding="UTF-8" standalone="no"?>
<!DOCTYPE svg PUBLIC "-//W3C//DTD SVG 1.1//EN"
 "http://www.w3.org/Graphics/SVG/1.1/DTD/svg11.dtd">
<!-- Generated by graphviz version 2.38.0 (20140413.2041)
 -->
<!-- Title: RenderGraph Pages: 1 -->
<svg width="588pt" height="288pt"
 viewBox="0.00 0.00 588.00 288.00" xmlns="http://www.w3.org/2000/svg" xmlns:xlink="http://www.w3.org/1999/xlink">
<g id="graph0" class="graph" transform="scale(1 1) rotate(0) translate(4 284)">
<title>RenderGraph</title>
<polygon fill="white" stroke="none" points="-4,4 -4,-284 584,-284 584,4 -4,4"/>
<!-- Pass0 -->
<g id="node1" class="node"><title>Pass0</title>
<path fill="orange" stroke="black" d="M108.5,-78C108.5,-78 22.5,-78 22.5,-78 16.5,-78 10.5,-72 10.5,-66 10.5,-66 10.5,-17 10.5,-17 10.5,-11 16.5,-5 22.5,-5 22.5,-5 108.5,-5 108.5,-5 114.5,-5 120.5,-11 120.5,-17 120.5,-17 120.5,-66 120.5,-66 120.5,-72 114.5,-78 108.5,-78"/>
<text text-anchor="middle" x="65.5" y="-52.8" font-family="Times New Roman,serif" font-size="14.00">Depth Prepass</text>
<text text-anchor="middle" x="65.5" y="-37.8" font-family="Times New Roman,serif" font-size="14.00">Refs: 2</text>
<text text-anchor="middle" x="65.5" y="-22.8" font-family="Times New Roman,serif" font-size="14.00">Index: 0</text>
</g>
<!-- Resource0_1 -->
<g id="node5" class="node"><title>Resource0_1</title>
<polygon fill="#8db6cd" stroke="black" points="266,-83 167,-83 167,-0 266,-0 266,-83"/>
<text text-anchor="middle" x="216.5" y="-67.8" font-family="Times New Roman,serif" font-size="14.00">Depth Stencil</text>
<text text-anchor="middle" x="216.5" y="-52.8" font-family="Times New Roman,serif" font-size="14.00">Id:0</text>
<text text-anchor="middle" x="216.5" y="-37.8" font-family="Times New Roman,serif" font-size="14.00">Refs: 1</text>
<text text-anchor="middle" x="216.5" y="-22.8" font-family="Times New Roman,serif" font-size="14.00">Res: 1240x720</text>
<text text-anchor="middle" x="216.5" y="-7.8" font-family="Times New Roman,serif" font-size="14.00">MSAA: 4</text>
</g>
<!-- Pass0&#45;&gt;Resource0_1 -->
<g id="edge1" class="edge"><title>Pass0&#45;&gt;Resource0_1</title>
<path fill="none" stroke="#ff7f24" d="M120.714,-41.5C132.298,-41.5 144.591,-41.5 156.35,-41.5"/>
<polygon fill="#ff7f24" stroke="#ff7f24" points="156.515,-45.0001 166.515,-41.5 156.515,-38.0001 156.515,-45.0001"/>
</g>
<!-- Pass1 -->
<g id="node2" class="node"><title>Pass1</title>
<path fill="orange" stroke="black" d="M401,-78C401,-78 314,-78 314,-78 308,-78 302,-72 302,-66 302,-66 302,-17 302,-17 302,-11 308,-5 314,-5 314,-5 401,-5 401,-5 407,-5 413,-11 413,-17 413,-17 413,-66 413,-66 413,-72 407,-78 401,-78"/>
<text text-anchor="middle" x="357.5" y="-52.8" font-family="Times New Roman,serif" font-size="14.00">Depth Resolve</text>
<text text-anchor="middle" x="357.5" y="-37.8" font-family="Times New Roman,serif" font-size="14.00">Refs: 1</text>
<text text-anchor="middle" x="357.5" y="-22.8" font-family="Times New Roman,serif" font-size="14.00">Index: 1</text>
</g>
<!-- Resource1_1 -->
<g id="node6" class="node"><title>Resource1_1</title>
<polygon fill="#e0eeee" stroke="black" points="580,-83 449,-83 449,-0 580,-0 580,-83"/>
<text text-anchor="middle" x="514.5" y="-67.8" font-family="Times New Roman,serif" font-size="14.00">Depth Stencil Target</text>
<text text-anchor="middle" x="514.5" y="-52.8" font-family="Times New Roman,serif" font-size="14.00">Id:1</text>
<text text-anchor="middle" x="514.5" y="-37.8" font-family="Times New Roman,serif" font-size="14.00">Refs: 0</text>
<text text-anchor="middle" x="514.5" y="-22.8" font-family="Times New Roman,serif" font-size="14.00">Res: 1240x720</text>
<text text-anchor="middle" x="514.5" y="-7.8" font-family="Times New Roman,serif" font-size="14.00">MSAA: 1</text>
</g>
<!-- Pass1&#45;&gt;Resource1_1 -->
<g id="edge2" class="edge"><title>Pass1&#45;&gt;Resource1_1</title>
<path fill="none" stroke="#ff7f24" d="M413.147,-41.5C421.479,-41.5 430.198,-41.5 438.869,-41.5"/>
<polygon fill="#ff7f24" stroke="#ff7f24" points="439,-45.0001 449,-41.5 439,-38.0001 439,-45.0001"/>
</g>
<!-- Resource0_0 -->
<g id="node3" class="node"><title>Resource0_0</title>
<polygon fill="#8db6cd" stroke="black" points="115,-179 16,-179 16,-96 115,-96 115,-179"/>
<text text-anchor="middle" x="65.5" y="-163.8" font-family="Times New Roman,serif" font-size="14.00">Depth Stencil</text>
<text text-anchor="middle" x="65.5" y="-148.8" font-family="Times New Roman,serif" font-size="14.00">Id:0</text>
<text text-anchor="middle" x="65.5" y="-133.8" font-family="Times New Roman,serif" font-size="14.00">Refs: 1</text>
<text text-anchor="middle" x="65.5" y="-118.8" font-family="Times New Roman,serif" font-size="14.00">Res: 1240x720</text>
<text text-anchor="middle" x="65.5" y="-103.8" font-family="Times New Roman,serif" font-size="14.00">MSAA: 4</text>
</g>
<!-- Resource1_0 -->
<g id="node4" class="node"><title>Resource1_0</title>
<polygon fill="#e0eeee" stroke="black" points="131,-280 0,-280 0,-197 131,-197 131,-280"/>
<text text-anchor="middle" x="65.5" y="-264.8" font-family="Times New Roman,serif" font-size="14.00">Depth Stencil Target</text>
<text text-anchor="middle" x="65.5" y="-249.8" font-family="Times New Roman,serif" font-size="14.00">Id:1</text>
<text text-anchor="middle" x="65.5" y="-234.8" font-family="Times New Roman,serif" font-size="14.00">Refs: 0</text>
<text text-anchor="middle" x="65.5" y="-219.8" font-family="Times New Roman,serif" font-size="14.00">Res: 1240x720</text>
<text text-anchor="middle" x="65.5" y="-204.8" font-family="Times New Roman,serif" font-size="14.00">MSAA: 1</text>
</g>
<!-- Resource0_1&#45;&gt;Pass1 -->
<g id="edge3" class="edge"><title>Resource0_1&#45;&gt;Pass1</title>
<path fill="none" stroke="darkseagreen" d="M266.115,-41.5C274.443,-41.5 283.212,-41.5 291.88,-41.5"/>
<polygon fill="darkseagreen" stroke="darkseagreen" points="291.975,-45.0001 301.975,-41.5 291.975,-38.0001 291.975,-45.0001"/>
</g>
</g>
</svg>
